<svg xmlns="http://www.w3.org/2000/svg" width="128" height="128" viewBox="0 0 32 32" fill="none" shape-rendering="crispEdges" role="img" aria-label="Gothic chibi OC">
  <!-- Outer Glow / Soft Halo -->
  <rect x="6" y="2" width="20" height="28" fill="#A855F7" opacity="0.15"/>

  <!-- Back Long Hair (Flowing Purple) -->
  <rect x="5" y="10" width="22" height="20" fill="#4C1D95"/>
  <rect x="4" y="14" width="24" height="15" fill="#3B0764"/>
  <rect x="3" y="18" width="26" height="10" fill="#2E1065"/>

  <!-- Pointed Elf Ears -->
  <rect x="2" y="14" width="5" height="2" fill="#FCE7F3"/>
  <rect x="1" y="15" width="4" height="1" fill="#FBCFE8"/>
  <rect x="25" y="14" width="5" height="2" fill="#FCE7F3"/>
  <rect x="27" y="15" width="4" height="1" fill="#FBCFE8"/>

  <!-- Chibi Face Base -->
  <rect x="7" y="10" width="18" height="13" fill="#FCE7F3"/>
  <rect x="9" y="22" width="14" height="2" fill="#FCE7F3"/>

  <!-- Soft Blush Cheeks -->
  <rect x="8" y="19" width="3" height="2" fill="#F472B6" opacity="0.6"/>
  <rect x="21" y="19" width="3" height="2" fill="#F472B6" opacity="0.6"/>

  <!-- Large Anime/Gothic Eyes -->
  <!-- Outer Eyelashes & Eyeliner -->
  <rect x="8" y="13" width="7" height="6" fill="#0F0716"/>
  <rect x="17" y="13" width="7" height="6" fill="#0F0716"/>

  <!-- Glowing Violet Iris -->
  <rect x="9" y="14" width="5" height="4" fill="#C084FC"/>
  <rect x="18" y="14" width="5" height="4" fill="#C084FC"/>
  <rect x="10" y="15" width="3" height="3" fill="#E879F9"/>
  <rect x="19" y="15" width="3" height="3" fill="#E879F9"/>

  <!-- Eye Highlights (Sparkle) -->
  <rect x="9" y="14" width="2" height="2" fill="#FFFFFF"/>
  <rect x="18" y="14" width="2" height="2" fill="#FFFFFF"/>
  <rect x="12" y="16" width="1" height="1" fill="#FFFFFF"/>
  <rect x="21" y="16" width="1" height="1" fill="#FFFFFF"/>

  <!-- Tiny Cute Mouth -->
  <rect x="15" y="21" width="2" height="1" fill="#9D174D"/>

  <!-- Front Hair & Bangs -->
  <rect x="7" y="8" width="18" height="4" fill="#7E22CE"/>
  <rect x="9" y="6" width="14" height="3" fill="#A855F7"/>
  <!-- Side Hair Locks -->
  <rect x="6" y="11" width="3" height="8" fill="#7E22CE"/>
  <rect x="23" y="11" width="3" height="8" fill="#7E22CE"/>
  <!-- Bangs Center Split -->
  <rect x="10" y="11" width="3" height="3" fill="#7E22CE"/>
  <rect x="19" y="11" width="3" height="3" fill="#7E22CE"/>
  <rect x="15" y="10" width="2" height="3" fill="#6B21A8"/>

  <!-- Black Gothic Choker -->
  <rect x="13" y="23" width="6" height="1" fill="#000000"/>

  <!-- GOTHIC PURPLE DRESS WITH RUFFLES -->
  <!-- White Lace Collar/Ruffle Top -->
  <rect x="11" y="24" width="10" height="1" fill="#F3E8FF"/>
  <rect x="12" y="25" width="8" height="1" fill="#E9D5FF"/>

  <!-- Black Bow Ribbon on Chest -->
  <rect x="15" y="25" width="2" height="2" fill="#0F0716"/>
  <rect x="13" y="25" width="2" height="1" fill="#1F112B"/>
  <rect x="17" y="25" width="2" height="1" fill="#1F112B"/>

  <!-- Main Dress Body (Deep Gothic Purple) -->
  <rect x="8" y="26" width="16" height="6" fill="#4C1D95"/>
  <rect x="7" y="28" width="18" height="4" fill="#3B0764"/>

  <!-- Dark Frill Overlay / Layering -->
  <rect x="8" y="27" width="16" height="1" fill="#1E1B4B"/>
  <rect x="7" y="30" width="18" height="1" fill="#1E1B4B"/>

  <!-- Ruffled Sleeves -->
  <rect x="6" y="25" width="3" height="4" fill="#581C87"/>
  <rect x="23" y="25" width="3" height="4" fill="#581C87"/>
  <rect x="5" y="28" width="3" height="2" fill="#E9D5FF" opacity="0.7"/>
  <rect x="24" y="28" width="3" height="2" fill="#E9D5FF" opacity="0.7"/>

  <!-- Magic Sparkles Floating Around -->
  <path d="M 3 5 h 1 v 3 h -1 z M 2 6 h 3 v 1 h -3 z" fill="#F0ABFC"/>
  <path d="M 28 7 h 1 v 3 h -1 z M 27 8 h 3 v 1 h -3 z" fill="#F0ABFC"/>
</svg>
