<svg xmlns="http://www.w3.org/2000/svg" viewBox="0 0 850 50" width="100%" height="100%" shape-rendering="crispEdges" role="img" aria-label="System status bar">
  <rect x="0" y="0" width="850" height="50" fill="#181124" />
  <g transform="translate(24, 18)">
    <g>
      <animateTransform attributeName="transform" type="translate" values="0 0; 0 -3; 0 0" dur="2.4s" repeatCount="indefinite" />
      <g transform="scale(1.7)">
        <g fill="#E0AAFF">
          <rect x="4" y="0" width="6" height="1" />
          <rect x="3" y="1" width="8" height="1" />
          <rect x="2" y="2" width="10" height="3" />
          <rect x="2" y="5" width="10" height="1" />
          <rect x="3" y="6" width="2" height="2" />
          <rect x="6" y="6" width="2" height="2" />
          <rect x="9" y="6" width="2" height="2" />
        </g>
        <g fill="#181124">
          <rect x="4" y="3" width="2" height="2" />
          <rect x="8" y="3" width="2" height="2" />
        </g>
        <g fill="#FF85A1" opacity="0.85">
          <rect x="2" y="4" width="1" height="1" />
          <rect x="11" y="4" width="1" height="1" />
        </g>
      </g>
    </g>
  </g>
  <text x="425" y="30" fill="#A78BFA" font-family="'Courier New', monospace" font-size="13" letter-spacing="1" text-anchor="middle">[ 🍡 SYSTEM: ONLINE ]&#160;|&#160;[ 🎀 STATUS: BUILDING ]&#160;|&#160;[ 🧋 MODE: MACOS ]</text>
  <path d="M 1 0 H 3 V 1 H 4 V 3 H 3 V 4 H 2 V 5 H 1 V 3 H 0 V 1 H 1 Z" fill="#F0ABFC" transform="translate(742, 17) scale(1.6)" />
</svg>
